# xmcd CD database file
#
# Track frame offsets:
#	150
#	17572
#	44524
#	72796
#	95909
#	110574
#	137414
#	167807
#	197411
#	216181
#
# Disc length: 3165 seconds
#
# Revision: 0
# Processed by: cddbd v1.5.1PL0 Copyright (c) Steve Scherf et al.
# Submitted via: CDex 1.51
#
DISCID=8b0c5b0a
DTITLE=The Don Rebic Trio - Together
DYEAR=2003
DGENRE=Jazz
TTITLE0=Together, Wherever We Go
TTITLE1=Infinity Limited
TTITLE2=New Valley
TTITLE3=I'll Never Get Over You
TTITLE4=Ramsey
TTITLE5=Music Of The Night
TTITLE6=I've Got The World On A String
TTITLE7=Nossa Bova
TTITLE8=The Summer Knows
TTITLE9=Berko's Bounce
EXTD=YEAR: 2003
EXTT0=
EXTT1=
EXTT2=
EXTT3=
EXTT4=
EXTT5=
EXTT6=
EXTT7=
EXTT8=
EXTT9=
PLAYORDER=
